HIERARCHY
ROOT Joint1
{
	OFFSET 0.000000 0.000000 0.000000
	CHANNELS 6 Xposition Yposition Zposition Xrotation Yrotation Zrotation
	JOINT Joint2
	{
		OFFSET -0.000000 0.000000 1.456275
		CHANNELS 6 Xposition Yposition Zposition Xrotation Yrotation Zrotation
		JOINT Joint3
		{
			OFFSET -0.000000 0.000002 1.471446
			CHANNELS 6 Xposition Yposition Zposition Xrotation Yrotation Zrotation
			JOINT Joint4
			{
				OFFSET 0.625745 0.000000 0.917755
				CHANNELS 6 Xposition Yposition Zposition Xrotation Yrotation Zrotation
				JOINT Joint5
				{
					OFFSET -0.629534 0.000001 0.940221
					CHANNELS 6 Xposition Yposition Zposition Xrotation Yrotation Zrotation
					JOINT Joint6
					{
						OFFSET -0.000001 0.113772 1.960660
						CHANNELS 6 Xposition Yposition Zposition Xrotation Yrotation Zrotation
						JOINT Joint7
						{
							OFFSET -0.669733 -0.113771 0.388340
							CHANNELS 6 Xposition Yposition Zposition Xrotation Yrotation Zrotation
							End Site
							{
								OFFSET 0.005509 0.005509 0.438980
							}
						}
					}
				}
			}
		}
	}
}
MOTION
Frames: 22
Frame Time: 0.041667
0.000000 0.000000 0.000000 -0.000000 1.019410 0.020331 -0.000000 0.000000 1.456275 -0.000000 -44.981252 0.000000 -0.000000 0.000002 1.471446 -0.000000 -1.133464 -0.051468 0.625745 0.000000 0.917755 0.000004 135.014152 -0.000001 -0.629534 0.000001 0.940221 0.000000 1.709736 -0.045843 -0.000001 0.113772 1.960660 -88.308779 89.962553 -0.003254 -0.669733 -0.113771 0.388341 -0.704881 3.566198 134.947763 
0.000000 0.000000 0.000000 -0.000000 1.019410 0.094025 -0.000000 0.000000 1.456275 0.000000 -44.960642 -0.000000 -0.000001 0.000002 1.471446 -0.000000 -1.133462 -0.105639 0.625745 0.000000 0.917755 0.000004 134.975384 -0.000001 -0.629534 0.000001 0.940221 0.000000 1.709736 -0.139019 -0.000001 0.113772 1.960661 -88.306689 89.935580 -0.002011 -0.669733 -0.113771 0.388340 -0.703672 3.566195 134.879762 
0.000000 0.000000 0.000000 -0.000000 1.019410 0.217663 -0.000000 0.000000 1.456275 -0.000000 -44.926061 0.000000 -0.000000 0.000002 1.471446 0.000000 -1.133458 -0.196524 0.625745 0.000000 0.917755 0.000004 134.910334 -0.000001 -0.629534 0.000001 0.940221 -0.000000 1.709736 -0.295344 -0.000001 0.113772 1.960660 -88.305678 89.890323 -0.001065 -0.669733 -0.113771 0.388341 -0.701645 3.566189 134.765643 
0.000000 0.000000 0.000000 -0.000000 1.019410 0.391911 -0.000000 0.000000 1.456275 0.000000 -44.877324 0.000000 -0.000000 0.000002 1.471446 0.000000 -1.133459 -0.324611 0.625745 0.000000 0.917755 0.000004 134.818645 -0.000001 -0.629534 0.000001 0.940221 0.000000 1.709737 -0.515659 -0.000001 0.113772 1.960660 -88.304989 89.826543 -0.000703 -0.669733 -0.113771 0.388340 -0.698789 3.566174 134.604833 
0.000000 0.000000 0.000000 -0.000000 1.019410 0.617437 -0.000000 0.000000 1.456275 0.000000 -44.814254 0.000000 -0.000000 0.000002 1.471446 -0.000000 -1.133456 -0.490392 0.625745 0.000000 0.917755 0.000004 134.699991 -0.000001 -0.629534 0.000001 0.940221 -0.000000 1.709737 -0.800809 -0.000000 0.113772 1.960661 -88.304613 89.743987 -0.000520 -0.669733 -0.113771 0.388339 -0.695092 3.566142 134.396662 
0.000000 0.000000 0.000000 -0.000000 1.019410 0.894908 -0.000000 0.000000 1.456275 0.000000 -44.736650 -0.000000 -0.000000 0.000002 1.471446 0.000000 -1.133459 -0.694357 0.625744 0.000000 0.917755 0.000004 134.554016 -0.000001 -0.629533 0.000001 0.940221 -0.000000 1.709737 -1.151636 -0.000000 0.113772 1.960660 -88.304415 89.642428 -0.000312 -0.669733 -0.113771 0.388340 -0.690543 3.566084 134.140558 
0.000000 0.000000 0.000000 -0.000000 1.019410 1.224990 -0.000000 -0.000000 1.456275 -0.000000 -44.644336 0.000000 -0.000001 0.000002 1.471446 0.000000 -1.133461 -0.936995 0.625745 0.000000 0.917755 0.000004 134.380352 -0.000001 -0.629533 0.000001 0.940221 0.000000 1.709736 -1.568983 -0.000001 0.113772 1.960660 -88.304278 89.521602 -0.000235 -0.669733 -0.113771 0.388340 -0.685133 3.565988 133.835904 
0.000000 0.000000 0.000000 -0.000000 1.019410 1.608350 -0.000000 0.000000 1.456275 0.000000 -44.537119 -0.000000 -0.000000 0.000002 1.471446 0.000000 -1.133462 -1.218798 0.625744 0.000000 0.917754 0.000004 134.178656 -0.000001 -0.629534 0.000001 0.940221 0.000000 1.709736 -2.053693 -0.000001 0.113772 1.960661 -88.304169 89.381276 -0.000197 -0.669733 -0.113771 0.388340 -0.678850 3.565842 133.482086 
0.000000 0.000000 0.000000 -0.000000 1.019410 2.045654 -0.000000 -0.000000 1.456275 -0.000000 -44.414821 0.000000 -0.000000 0.000002 1.471446 0.000000 -1.133455 -1.540254 0.625745 0.000000 0.917755 0.000004 133.948588 -0.000001 -0.629534 0.000001 0.940221 -0.000000 1.709737 -2.606610 -0.000000 0.113772 1.960661 -88.304128 89.221211 -0.000167 -0.669733 -0.113771 0.388341 -0.671683 3.565626 133.078463 
0.000000 0.000000 0.000000 -0.000000 1.019410 2.537570 -0.000000 0.000000 1.456275 -0.000000 -44.277244 -0.000000 -0.000000 0.000002 1.471446 -0.000000 -1.133461 -1.901855 0.625744 0.000000 0.917755 0.000004 133.689779 -0.000001 -0.629534 0.000001 0.940221 0.000000 1.709736 -3.228576 -0.000001 0.113772 1.960660 -88.304087 89.041146 -0.000122 -0.669733 -0.113771 0.388340 -0.663625 3.565325 132.624420 
0.000000 0.000000 0.000000 -0.000000 1.019410 3.084765 -0.000000 -0.000000 1.456275 -0.000000 -44.124210 0.000000 -0.000001 0.000002 1.471446 0.000000 -1.133460 -2.304089 0.625745 0.000000 0.917755 0.000004 133.401886 -0.000001 -0.629534 0.000001 0.940221 -0.000000 1.709737 -3.920434 -0.000001 0.113772 1.960660 -88.304046 88.840851 -0.000109 -0.669733 -0.113771 0.388339 -0.654663 3.564914 132.119368 
0.000000 0.000000 0.000000 -0.000000 1.019410 3.687904 -0.000000 0.000000 1.456275 -0.000000 -43.955525 -0.000001 -0.000001 0.000002 1.471445 -0.000000 -1.133461 -2.747449 0.625745 0.000000 0.917755 0.000004 133.084569 -0.000001 -0.629534 0.000001 0.940221 0.000000 1.709736 -4.683029 -0.000001 0.113772 1.960660 -88.304012 88.620079 -0.000091 -0.669733 -0.113771 0.388340 -0.644791 3.564371 131.562694 
0.000000 0.000000 0.000000 -0.000000 1.019410 4.346165 -0.000000 0.000000 1.456275 0.000000 -43.771428 0.000000 -0.000000 0.000002 1.471446 0.000000 -1.133460 -3.231327 0.625745 0.000000 0.917755 0.000004 132.738251 -0.000001 -0.629533 0.000001 0.940221 0.000000 1.709736 -5.515320 -0.000001 0.113772 1.960661 -88.303998 88.379130 -0.000077 -0.669733 -0.113771 0.388341 -0.634022 3.563668 130.955135 
0.000000 0.000000 0.000000 -0.000000 1.019410 5.052766 -0.000000 0.000000 1.456275 0.000000 -43.573810 -0.000001 -0.000000 0.000002 1.471446 -0.000000 -1.133463 -3.750740 0.625745 0.000000 0.917755 0.000004 132.366498 -0.000001 -0.629534 0.000001 0.940220 -0.000000 1.709736 -6.408728 -0.000001 0.113772 1.960661 -88.303985 88.120485 -0.000065 -0.669733 -0.113771 0.388340 -0.622472 3.562787 130.302961 
0.000000 0.000000 0.000000 -0.000000 1.019410 5.799436 -0.000000 0.000000 1.456275 -0.000000 -43.364987 0.000000 -0.000000 0.000002 1.471446 0.000000 -1.133456 -4.299607 0.625745 0.000000 0.917755 0.000004 131.973653 -0.000001 -0.629533 0.000001 0.940221 0.000000 1.709736 -7.352798 -0.000000 0.113772 1.960660 -88.303971 87.847175 -0.000058 -0.669733 -0.113771 0.388340 -0.610278 3.561713 129.613795 
0.000000 0.000000 0.000000 -0.000000 1.019410 6.577903 -0.000000 0.000000 1.456275 0.000000 -43.147265 -0.000001 -0.000000 0.000002 1.471446 -0.000001 -1.133463 -4.871847 0.625745 0.000000 0.917755 0.000004 131.564087 -0.000001 -0.629534 0.000001 0.940221 0.000000 1.709736 -8.337071 -0.000001 0.113772 1.960660 -88.303964 87.562219 -0.000051 -0.669733 -0.113771 0.388340 -0.597580 3.560438 128.895287 
0.000000 0.000000 0.000000 -0.000000 1.019410 7.379893 -0.000000 0.000000 1.456275 -0.000000 -42.922971 0.000001 -0.000000 0.000002 1.471446 0.000000 -1.133461 -5.461377 0.625744 0.000000 0.917755 0.000003 131.142146 -0.000001 -0.629534 0.000001 0.940221 0.000000 1.709736 -9.351087 -0.000001 0.113772 1.960661 -88.303950 87.268658 -0.000046 -0.669733 -0.113771 0.388339 -0.584516 3.558958 128.155085 
0.000000 0.000000 0.000000 -0.000000 1.019410 8.203608 -0.000000 -0.000000 1.456275 -0.000001 -42.692603 -0.000000 -0.000000 0.000002 1.471446 0.000001 -1.133459 -6.066880 0.625744 0.000000 0.917755 0.000004 130.708770 -0.000001 -0.629534 0.000001 0.940221 -0.000000 1.709737 -10.392574 -0.000001 0.113772 1.960661 -88.303944 86.967146 -0.000040 -0.669733 -0.113771 0.388340 -0.571120 3.557263 127.394817 
0.000000 0.000000 0.000000 -0.000000 1.019410 9.073135 -0.000000 0.000000 1.456275 0.000001 -42.449417 -0.000000 -0.000000 0.000002 1.471446 0.000000 -1.133461 -6.706058 0.625745 0.000000 0.917755 0.000003 130.251311 -0.000001 -0.629534 0.000001 0.940221 0.000000 1.709736 -11.491985 -0.000002 0.113772 1.960661 -88.303937 86.648859 -0.000037 -0.669733 -0.113771 0.388340 -0.557004 3.555281 126.592283 
0.000000 0.000000 0.000000 -0.000000 1.019410 10.019041 -0.000000 0.000000 1.456275 0.000000 -42.184870 -0.000001 -0.000000 0.000002 1.471446 0.000000 -1.133461 -7.401379 0.625745 0.000000 0.917755 0.000004 129.753623 -0.000000 -0.629534 0.000001 0.940221 -0.000000 1.709736 -12.687963 -0.000001 0.113772 1.960660 -88.303937 86.302616 -0.000034 -0.669733 -0.113771 0.388340 -0.541681 3.552902 125.719235 
0.000000 0.000000 0.000000 -0.000000 1.019410 11.071882 -0.000000 -0.000000 1.456275 0.000000 -41.890411 0.000000 -0.000001 0.000002 1.471446 -0.000000 -1.133460 -8.175305 0.625745 0.000000 0.917755 0.000004 129.199708 -0.000001 -0.629534 0.000001 0.940221 -0.000000 1.709736 -14.019145 -0.000000 0.113772 1.960661 -88.303930 85.917243 -0.000031 -0.669733 -0.113771 0.388341 -0.524672 3.549980 124.747531 
0.000000 0.000000 0.000000 -0.000000 1.019410 12.246895 -0.000000 -0.000000 1.456275 0.000001 -41.561800 -0.000001 -0.000000 0.000002 1.471445 0.000001 -1.133460 -9.039043 0.625745 0.000000 0.917755 0.000004 128.581508 -0.000001 -0.629534 0.000001 0.940221 0.000000 1.709736 -15.504801 -0.000001 0.113772 1.960660 -88.303923 85.487139 -0.000030 -0.669733 -0.113771 0.388340 -0.505750 3.546379 123.663034 
